<svg id="Layer_1" xmlns="http://www.w3.org/2000/svg" viewBox="0 0 18 18" style="width: 40px; height: 40px;"><rect width="18" height="18" style="fill: rgb(226, 29, 25);"></rect><g><g><polyline points="9 5.95 5.47 8 4.57 7.13 6.49 5.36 4.93 5.36 3 7.02 9 13.14" style="fill: rgb(250, 250, 250);"></polyline><g><g><polygon points="9 11.43 8.4 10.84 9 10.43 9 11.43" style="fill: rgb(226, 29, 25);"></polygon><polygon points="7.67 10.13 9 9.3 9 8.59 7.21 9.68 7.67 10.13" style="fill: rgb(226, 29, 25);"></polygon></g><polygon points="6.46 8.96 9 7.51 9 6.91 6.11 8.62 6.46 8.96" style="fill: rgb(226, 29, 25);"></polygon></g></g><g><polyline points="9 5.95 12.53 8 13.43 7.13 11.51 5.36 13.07 5.36 15 7.02 9 13.14" style="fill: rgb(250, 250, 250);"></polyline><g><g><polygon points="9 11.43 9.6 10.84 9 10.43 9 11.43" style="fill: rgb(226, 29, 25);"></polygon><polygon points="10.33 10.13 9 9.3 9 8.59 10.79 9.68 10.33 10.13" style="fill: rgb(226, 29, 25);"></polygon></g><polygon points="11.54 8.96 9 7.51 9 6.91 11.89 8.62 11.54 8.96" style="fill: rgb(226, 29, 25);"></polygon></g></g></g></svg>