<svg id="Layer_1" xmlns="http://www.w3.org/2000/svg" viewBox="0 0 18 18" style="width: 40px; height: 40px;"><rect width="18" height="18" style="fill: rgb(19, 41, 74);"></rect><g><path id="Layer" d="M4.63,10.67h7.62c.36,0,.72-.05,1.08-.15.3-.1.56-.25.79-.44.3-.23.51-.52.64-.89.16-.36.25-.74.25-1.13,0-.49-.15-.93-.34-1.33-.3-.54-.74-.93-1.28-1.08-.33-.1-.85-.15-1.57-.15h-4.08v3.25h1.72v-1.87h2.41c.23,0,.44.03.64.1.39.13.59.48.59,1.03,0,.49-.13.84-.39,1.03-.16.13-.46.2-.89.2H3.01v1.43" style="fill: rgb(255, 255, 255);"></path><path id="Layer-2" data-name="Layer" d="M9.5,11.11h-1.72v1.38h1.72v-1.38Z" style="fill: rgb(255, 255, 255);"></path></g></svg>