<svg
  width="16"
  height="22"
  viewBox="0 0 23 31"
  fill="none"
  xmlns="http://www.w3.org/2000/svg"
>
  <title>BaseHub Logo</title>
  <g clip-path="url(#clip-:r6:)">
    <rect y="0.90625" width="22.7813" height="29.4375" rx="4.6875"></rect>
    <rect
      width="44.6311"
      height="2.374"
      transform="matrix(0.707108 -0.707105 0.707108 0.707105 8.07422 37.1143)"
      fill="#ff6c02"
      fill-opacity="0.6"
    ></rect>
    <rect
      opacity="0.5"
      width="44.6311"
      height="2.374"
      transform="matrix(0.707108 -0.707105 0.707108 0.707105 8.07422 33.7915)"
      fill="#ff6c02"
    ></rect>
    <rect
      opacity="0.4"
      width="44.6311"
      height="2.374"
      transform="matrix(0.707108 -0.707105 0.707108 0.707105 4.74902 33.7915)"
      fill="#ff6c02"
    ></rect>
    <rect
      opacity="0.35"
      width="44.6311"
      height="2.374"
      transform="matrix(0.707108 -0.707105 0.707108 0.707105 1.4248 33.7915)"
      fill="#ff6c02"
    ></rect>
    <rect
      opacity="0.3"
      width="44.6311"
      height="2.374"
      transform="matrix(0.707108 -0.707105 0.707108 0.707105 0.475586 31.417)"
      fill="#ff6c02"
    ></rect>
    <rect
      opacity="0.25"
      width="44.6311"
      height="2.374"
      transform="matrix(0.707108 -0.707105 0.707108 0.707105 0.000976562 28.5684)"
      fill="#ff6c02"
    ></rect>
    <rect
      opacity="0.2"
      width="44.6311"
      height="2.374"
      transform="matrix(0.707108 -0.707105 0.707108 0.707105 -1.42383 26.6689)"
      fill="#ff6c02"
    ></rect>
    <rect
      opacity="0.15"
      width="44.6311"
      height="2.374"
      transform="matrix(0.707108 -0.707105 0.707108 0.707105 -4.74707 26.6689)"
      fill="#ff6c02"
    ></rect>
    <rect
      opacity="0.1"
      width="44.6311"
      height="2.374"
      transform="matrix(0.707108 -0.707105 0.707108 0.707105 -8.07129 26.6689)"
      fill="#ff6c02"
    ></rect>
  </g>
  <rect
    x="0.712199"
    y="1.61845"
    width="21.3569"
    height="28.0131"
    rx="3.9753"
    stroke="#ff6c02"
    stroke-width="1.4244"
  ></rect>
  <defs>
    <clipPath id="clip-:r6:">
      <rect
        y="0.90625"
        width="22.7813"
        height="29.4375"
        rx="4.6875"
        fill="white"
      ></rect>
    </clipPath>
  </defs>
</svg>
