<svg xmlns="http://www.w3.org/2000/svg" viewBox="0 0 18 18" width="18" height="18" style="width: 40px; height: 40px;"><rect width="18" height="18" style="fill: rgb(10, 10, 10);"></rect><g transform="translate(-36.2, -13.5) scale(0.09)"><path d="M503.21 231.881C503.298 231.888 503.395 231.903 503.483 231.925C504.053 232.073 504.37 232.598 504.43 233.153C504.467 233.537 504.444 233.921 504.4 234.306C504.282 235.297 503.668 236.058 503.054 236.797C502.441 237.537 501.746 238.306 501.066 239.045C500.674 239.474 500.26 239.88 499.883 240.324C499.513 240.767 499.129 241.211 498.744 241.662C492.061 249.417 484.557 259.176 478.354 272.425C474.081 281.474 466.665 296.911 474.909 301.968C475.116 302.108 475.33 302.234 475.574 302.36C476.912 303.032 478.443 303.535 480.062 303.779C490.538 305.339 500.94 301.938 508.984 297.613C517.257 293.37 524.495 286.975 530.106 279.87C535.858 272.602 540.087 265.083 543.354 256.234C545.432 250.615 546.933 244.841 548.626 239.333C548.7 239.104 548.766 238.875 548.84 238.653C550.496 233.315 552.588 228.184 554.925 223.076C554.999 222.92 555.065 222.773 555.139 222.617C557.313 217.901 559.812 213.309 562.739 208.999C564.499 206.249 566.502 203.262 568.077 200.49C568.972 198.908 569.304 197.155 568.839 195.522C568.839 195.499 568.809 195.425 568.802 195.411C568.121 193.318 566.258 191.884 563.36 191.078C563.331 191.078 563.301 191.063 563.279 191.056C562.71 190.93 562.126 190.805 561.512 190.701C504.777 183.759 442.882 210.204 443.481 263.753C444.523 279.611 450.112 283.722 448.952 301.058C448.796 304.725 447.887 309.745 447.096 314.714C446.534 317.671 446.142 320.088 446.194 321.367C446.275 322.121 446.785 322.521 447.318 322.365C447.414 322.351 447.517 322.306 447.606 322.262C447.761 322.195 447.909 322.114 448.05 322.033C448.419 321.826 448.782 321.597 449.122 321.353C449.484 321.094 449.831 320.813 450.127 320.473C450.445 320.103 450.615 319.66 450.807 319.216C451.192 318.351 451.554 317.486 451.887 316.599C451.924 316.495 451.961 316.392 452.005 316.288C453.506 312.296 454.77 308.518 456.079 304.681C456.81 302.537 457.594 300.334 458.467 297.931C466.651 275.19 476.898 257.594 487.862 244.538C488.12 244.235 488.379 243.932 488.645 243.636C489.392 242.793 490.153 241.965 490.937 241.159C491.721 240.353 492.49 239.592 493.296 238.838C494.101 238.084 494.833 237.418 495.624 236.731C496.349 236.102 497.088 235.496 497.842 234.905C498.5 234.387 499.166 233.892 499.853 233.419C500.408 233.034 500.977 232.665 501.568 232.332C502.056 232.058 502.64 231.829 503.217 231.881H503.21Z" fill="#d70057"></path></g></svg>